<svg width="100" height="100" viewBox="0 0 100 100" fill="none" xmlns="http://www.w3.org/2000/svg">
<path d="M93.8381 7.82837H6.16191C2.76406 7.82837 0 10.5924 0 13.9901V73.4848C0 76.8825 2.76406 79.6465 6.16191 79.6465H35.8154L34.616 89.242H29.6465C28.8373 89.242 28.1816 89.8979 28.1816 90.7069C28.1816 91.5159 28.8373 92.1717 29.6465 92.1717H70.3535C71.1627 92.1717 71.8184 91.5159 71.8184 90.7069C71.8184 89.8979 71.1627 89.242 70.3535 89.242H65.3842L64.1846 79.6465H93.8381C97.2357 79.6465 100 76.8825 100 73.4848V13.9901C100 10.5924 97.2359 7.82837 93.8381 7.82837ZM37.5686 89.242L38.7682 79.6465H44.1594L44.6883 81.7618C45.2988 84.2038 47.4832 85.909 50.0002 85.909C52.5172 85.909 54.7016 84.2038 55.3121 81.7618L55.841 79.6465H61.2322L62.4314 89.242H37.5686ZM47.1791 79.6465H52.8207L52.4695 81.0512C52.1857 82.1866 51.1703 82.9793 49.9998 82.9793C48.8293 82.9793 47.8141 82.1864 47.5301 81.0512L47.1791 79.6465ZM97.0703 73.4848C97.0703 75.267 95.6203 76.7169 93.8381 76.7169H6.16191C4.37969 76.7169 2.92969 75.267 2.92969 73.4848V13.9901C2.92969 12.2079 4.37969 10.7581 6.16191 10.7581H93.8381C95.6203 10.7581 97.0703 12.2079 97.0703 13.9901V73.4848Z" fill="#415364"/>
<path d="M82.8785 14.0911H7.72729C6.91812 14.0911 6.26245 14.7467 6.26245 15.5559V71.9192C6.26245 72.7284 6.91812 73.384 7.72729 73.384H10.8587C11.6679 73.384 12.3236 72.7284 12.3236 71.9192C12.3238 71.1102 11.6679 70.4543 10.8589 70.4543H9.19233V17.0208H82.8785C83.6877 17.0208 84.3433 16.3649 84.3433 15.5559C84.3433 14.7467 83.6877 14.0911 82.8785 14.0911Z" fill="#415364"/>
<path d="M92.2726 14.0911H89.1412C88.332 14.0911 87.6763 14.7467 87.6763 15.5559C87.6763 16.3649 88.332 17.0208 89.1412 17.0208H90.8078V70.4543H17.1215C16.3123 70.4543 15.6566 71.1102 15.6566 71.9192C15.6566 72.7284 16.3123 73.384 17.1215 73.384H92.2724C93.0816 73.384 93.7373 72.7284 93.7373 71.9192V15.5559C93.7375 14.7467 93.0816 14.0911 92.2726 14.0911Z" fill="#415364"/>
<path d="M69.9415 30.3094C69.6782 29.9729 69.2811 29.7682 68.8546 29.7489L34.4104 28.1831C34.3835 28.1819 34.3571 28.1813 34.3299 28.1817C34.126 27.5124 33.6952 26.9319 33.112 26.5428L28.8938 23.7307C28.2208 23.2821 27.3112 23.4639 26.8626 24.1372C26.4139 24.8104 26.5958 25.7198 27.2688 26.1684L31.4868 28.9801C31.5067 28.9934 31.5213 29.0135 31.528 29.0366L36.9008 47.8415C37.0684 48.4278 37.3442 48.9547 37.6983 49.4098L35.7325 53.3415C35.2592 54.2877 35.3088 55.3899 35.8651 56.2899C36.0669 56.6163 36.3227 56.8942 36.6167 57.1168C36.2319 57.7885 36.0106 58.5655 36.0106 59.3936C36.0106 61.928 38.0725 63.9897 40.6067 63.9897C43.1409 63.9897 45.2028 61.9278 45.2028 59.3936C45.2028 58.8059 45.0907 58.2442 44.8887 57.7272H58.2436C58.0417 58.2442 57.9296 58.8059 57.9296 59.3936C57.9296 61.928 59.9915 63.9897 62.5257 63.9897C65.0598 63.9897 67.1217 61.9278 67.1217 59.3936C67.1217 58.6584 66.9473 57.9637 66.6391 57.3469C66.9348 57.079 67.1217 56.693 67.1217 56.2624C67.1217 55.4534 66.4661 54.7975 65.6569 54.7975H38.4424C38.4215 54.7975 38.3862 54.7975 38.3567 54.7497C38.3272 54.702 38.343 54.6706 38.3524 54.6516L40.1633 51.0299C40.5319 51.1247 40.9159 51.1758 41.3089 51.1758C41.4899 51.1758 41.6727 51.1651 41.8567 51.1436L62.4399 48.7221C65.0983 48.4092 67.2372 46.4358 67.7622 43.8108L70.2243 31.4995C70.3081 31.0805 70.2048 30.6459 69.9415 30.3094ZM62.5253 57.7276C63.4442 57.7276 64.1917 58.4752 64.1917 59.394C64.1917 60.3129 63.4442 61.0604 62.5253 61.0604C61.6063 61.0604 60.8588 60.3129 60.8588 59.394C60.8588 58.475 61.6063 57.7276 62.5253 57.7276ZM40.6063 57.7276C41.5253 57.7276 42.2727 58.475 42.2727 59.394C42.2727 60.3129 41.5253 61.0604 40.6063 61.0604C39.6874 61.0604 38.9399 60.3129 38.9399 59.394C38.9399 58.475 39.6874 57.7276 40.6063 57.7276ZM37.0141 37.5756L35.1784 31.1508L41.0348 31.417L42.0503 37.5756H37.0141ZM41.5145 48.234C40.6977 48.3301 39.9428 47.8264 39.7174 47.0368L37.8512 40.5053H42.5333L43.7639 47.9694L41.5145 48.234ZM50.101 47.2239L46.6768 47.6268L45.5028 40.5055H50.101V47.2239ZM50.101 37.5756H45.0196L44.0266 31.5532L50.101 31.8293V37.5756ZM57.5194 46.351L53.0307 46.8792V40.5053H58.0485L57.5194 46.351ZM58.3137 37.5756H53.0307V31.9624L58.7981 32.2245L58.3137 37.5756ZM64.8891 43.2366C64.6137 44.6131 63.4919 45.6485 62.0975 45.8125L60.4926 46.0014L60.9901 40.5055H65.4352L64.8891 43.2366ZM66.0213 37.5756H61.2555L61.7278 32.3577L67.0169 32.5981L66.0213 37.5756Z" fill="#93D500"/>
</svg>
