<svg width="100" height="100" viewBox="0 0 100 100" fill="none" xmlns="http://www.w3.org/2000/svg">
<path d="M71.4844 0H28.5156C24.2078 0 20.7031 3.50469 20.7031 7.8125V92.1875C20.7031 96.4953 24.2078 100 28.5156 100H71.4844C75.7922 100 79.2969 96.4953 79.2969 92.1875V7.8125C79.2969 3.50469 75.7922 0 71.4844 0ZM75.3906 92.1875C75.3906 94.3414 73.6383 96.0938 71.4844 96.0938H28.5156C26.3617 96.0938 24.6094 94.3414 24.6094 92.1875V84.1797H75.3906V92.1875ZM75.3906 80.2734H24.6094V13.6719H75.3906V80.2734ZM75.3906 9.76562H24.6094V7.8125C24.6094 5.65859 26.3617 3.90625 28.5156 3.90625H71.4844C73.6383 3.90625 75.3906 5.65859 75.3906 7.8125V9.76562Z" fill="#415364"/>
<path d="M43.1641 91.9922H56.0547C57.1332 91.9922 58.0078 91.1176 58.0078 90.0391C58.0078 88.9605 57.1332 88.0859 56.0547 88.0859H43.1641C42.0854 88.0859 41.2109 88.9605 41.2109 90.0391C41.2109 91.1176 42.0854 91.9922 43.1641 91.9922Z" fill="#415364"/>
<path d="M30.4688 43.2617H32.9672C33.1652 43.8555 39.6588 63.3361 39.6678 63.3633C37.6945 64.3072 36.3281 66.323 36.3281 68.6523C36.3281 71.8832 38.9566 74.5117 42.1875 74.5117C45.4184 74.5117 48.0469 71.8832 48.0469 68.6523C48.0469 67.9676 47.9277 67.3105 47.7107 66.6992H60.1016C59.8848 67.3105 59.7654 67.9676 59.7654 68.6523C59.7654 71.8832 62.3939 74.5117 65.6248 74.5117C68.8557 74.5117 71.4842 71.8832 71.4842 68.6523C71.4842 66.2668 70.0504 64.2111 68 63.298L71.4258 49.5949C71.734 48.3619 70.7996 47.168 69.5311 47.168H38.3863L36.2279 40.6912C35.9621 39.8936 35.2156 39.3555 34.375 39.3555H30.4688C29.39 39.3555 28.5156 40.2299 28.5156 41.3086C28.5156 42.3871 29.39 43.2617 30.4688 43.2617ZM42.1875 70.6055C41.1105 70.6055 40.2344 69.7293 40.2344 68.6523C40.2344 67.5754 41.1105 66.6992 42.1875 66.6992C43.2645 66.6992 44.1406 67.5754 44.1406 68.6523C44.1406 69.7293 43.2645 70.6055 42.1875 70.6055ZM65.625 70.6055C64.548 70.6055 63.6719 69.7293 63.6719 68.6523C63.6719 67.5754 64.548 66.6992 65.625 66.6992C66.702 66.6992 67.5781 67.5754 67.5781 68.6523C67.5781 69.7293 66.702 70.6055 65.625 70.6055ZM67.0297 51.0742L64.1 62.793H43.5951L39.6885 51.0742H67.0297Z" fill="#93D500"/>
<path d="M53.9062 38.9648H69.5312C70.6098 38.9648 71.4844 38.0902 71.4844 37.0117V21.3867C71.4844 20.3082 70.6098 19.4336 69.5312 19.4336H53.9062C52.8277 19.4336 51.9531 20.3082 51.9531 21.3867V37.0117C51.9531 38.0902 52.8277 38.9648 53.9062 38.9648ZM55.8594 23.3398H67.5781V35.0586H55.8594V23.3398Z" fill="#415364"/>
<path d="M30.4688 23.3398H46.0938C47.1725 23.3398 48.0469 22.4652 48.0469 21.3867C48.0469 20.3082 47.1725 19.4336 46.0938 19.4336H30.4688C29.39 19.4336 28.5156 20.3082 28.5156 21.3867C28.5156 22.4652 29.39 23.3398 30.4688 23.3398Z" fill="#415364"/>
<path d="M30.4688 31.1523H46.0938C47.1725 31.1523 48.0469 30.2777 48.0469 29.1992C48.0469 28.1205 47.1725 27.2461 46.0938 27.2461H30.4688C29.39 27.2461 28.5156 28.1205 28.5156 29.1992C28.5156 30.2777 29.39 31.1523 30.4688 31.1523Z" fill="#415364"/>
</svg>
