<svg width="70" height="100" viewBox="0 0 70 100" fill="none" xmlns="http://www.w3.org/2000/svg">
<g clip-path="url(#clip0_11_120)">
<path d="M12.3351 65.4572C12.0473 65.4572 11.7713 65.5715 11.5678 65.775C11.3643 65.9785 11.25 66.2544 11.25 66.5422V82.0717C11.25 82.3595 11.3643 82.6355 11.5678 82.839C11.7713 83.0425 12.0473 83.1568 12.3351 83.1568H37.6403C37.9281 83.1568 38.2041 83.0425 38.4076 82.839C38.6111 82.6355 38.7254 82.3595 38.7254 82.0717V66.5422C38.7254 66.2544 38.6111 65.9785 38.4076 65.775C38.2041 65.5715 37.9281 65.4572 37.6403 65.4572H12.3351ZM36.5553 80.9867H13.4201V67.6273H36.5553V80.9867Z" fill="#415364" stroke="#415364" stroke-width="0.5"/>
<path d="M6.93432 59.4083C8.36329 59.5533 9.80422 59.2927 11.0919 58.6563C12.3795 58.0199 13.4617 57.0335 14.2144 55.8102C14.8581 57.0565 15.8259 58.1062 17.016 58.8487C18.206 59.5913 19.5743 59.9992 20.9767 60.0296C22.3791 60.0599 23.7637 59.7116 24.9848 59.0212C26.2059 58.3309 27.2182 57.3241 27.9152 56.1068C28.2224 56.6357 28.5889 57.1278 29.0075 57.5738C29.7431 58.3503 30.6292 58.9687 31.6117 59.3913C32.5943 59.814 33.6526 60.0319 34.7222 60.0319C35.7918 60.0319 36.8502 59.814 37.8327 59.3913C38.8152 58.9687 39.7013 58.3503 40.4369 57.5738C40.8556 57.1278 41.222 56.6357 41.5292 56.1068C42.2289 57.3208 43.2422 58.3243 44.463 59.0121C45.6837 59.6999 47.067 60.0468 48.4679 60.0163C49.8688 59.9858 51.2357 59.5792 52.4254 58.8389C53.6151 58.0986 54.5838 57.052 55.23 55.8087C56.2037 57.3778 57.7098 58.5437 59.4726 59.0934C61.2355 59.643 63.1374 59.5395 64.8302 58.8018C66.5231 58.0641 67.8937 56.7415 68.6913 55.0761C69.4889 53.4107 69.6603 51.5137 69.1739 49.7323L65.5382 36.3209V31.6406C65.5382 31.3528 65.4239 31.0768 65.2204 30.8734C65.0169 30.6699 64.7409 30.5555 64.4531 30.5555H4.98698C4.69995 30.5567 4.42507 30.6715 4.22252 30.8749C4.01997 31.0782 3.90625 31.3536 3.90625 31.6406V36.331L0.270542 49.7367C-0.0220444 50.8155 -0.0760782 51.9452 0.1122 53.047C0.300477 54.1489 0.726546 55.1965 1.36077 56.117C1.99499 57.0375 2.82213 57.8087 3.78466 58.3771C4.7472 58.9455 5.822 59.2974 6.93432 59.4083ZM21.1632 57.8617C20.3425 57.8619 19.5315 57.6836 18.7865 57.3394C18.0415 56.9951 17.3802 56.493 16.8485 55.8678C16.3168 55.2426 15.9273 54.5093 15.707 53.7187C15.4868 52.9281 15.441 52.0991 15.5729 51.2891L17.8053 37.5521H27.6331L26.8649 51.7303L26.8229 52.4985C26.7451 53.947 26.1149 55.3105 25.062 56.3082C24.0091 57.3059 22.6137 57.8619 21.1632 57.8617ZM38.8614 56.0822C38.0591 56.9316 37.0152 57.514 35.871 57.7506C34.7268 57.9872 33.5375 57.8666 32.4641 57.405C31.3907 56.9435 30.485 56.1633 29.8696 55.17C29.2542 54.1768 28.9588 53.0185 29.0234 51.8518L29.0683 51.0171L29.7917 37.5521H39.6296L40.353 51.0171L40.3979 51.8518C40.4453 52.6246 40.3334 53.3989 40.0691 54.1266C39.8048 54.8543 39.3937 55.5199 38.8614 56.0822ZM52.5955 55.868C51.861 56.7307 50.8848 57.3534 49.7928 57.6556C48.7009 57.9579 47.5434 57.9258 46.4699 57.5635C45.3964 57.2012 44.4562 56.5253 43.7707 55.6232C43.0852 54.7211 42.6859 53.6342 42.6244 52.5029L42.5825 51.7347L41.8142 37.5564H51.6392L53.8715 51.2934C54.0042 52.1037 53.9588 52.9333 53.7384 53.7243C53.5181 54.5153 53.128 55.2488 52.5955 55.8738V55.868ZM66.2948 54.8857C65.669 55.7939 64.7858 56.494 63.7587 56.896C62.7317 57.2981 61.6079 57.3836 60.5318 57.1417C59.4557 56.8997 58.4767 56.3414 57.7206 55.5384C56.9645 54.7354 56.4659 53.7246 56.2891 52.636L53.8368 37.5521H63.6256L67.079 50.3038C67.2896 51.0786 67.3285 51.89 67.1931 52.6814C67.0577 53.4728 66.7511 54.225 66.2948 54.8857ZM6.07639 32.7257H63.368V35.3819H6.07639V32.7257ZM2.36545 50.3038L5.81886 37.5521H15.6076L14.0958 46.8518L13.4303 50.9404L13.1554 52.6345C13.0348 53.3743 12.7649 54.0819 12.3623 54.7141C11.9597 55.3463 11.4326 55.89 10.8132 56.3121C10.1939 56.7343 9.49508 57.026 8.7594 57.1696C8.02373 57.3132 7.26653 57.3056 6.53388 57.1473C5.80122 56.9891 5.10841 56.6834 4.4976 56.249C3.88678 55.8146 3.37072 55.2604 2.9808 54.6203C2.59088 53.9801 2.33525 53.2673 2.22946 52.5253C2.12368 51.7832 2.16994 51.0274 2.36545 50.3038Z" fill="#93D500"/>
<path d="M68.3594 92.9543H65.5382V61.8186C65.5382 61.5308 65.4239 61.2548 65.2204 61.0513C65.0169 60.8478 64.7409 60.7335 64.4531 60.7335C64.1653 60.7335 63.8894 60.8478 63.6859 61.0513C63.4824 61.2548 63.3681 61.5308 63.3681 61.8186V92.9543H59.7295V66.5423C59.7295 66.2545 59.6151 65.9785 59.4116 65.775C59.2082 65.5715 58.9322 65.4572 58.6444 65.4572H44.5804C44.2927 65.4572 44.0167 65.5715 43.8132 65.775C43.6097 65.9785 43.4954 66.2545 43.4954 66.5423V92.9543H6.07639V61.8302C6.07639 61.5424 5.96207 61.2664 5.75858 61.0629C5.55509 60.8594 5.2791 60.7451 4.99132 60.7451C4.70354 60.7451 4.42755 60.8594 4.22406 61.0629C4.02057 61.2664 3.90625 61.5424 3.90625 61.8302V92.9543H1.08507C0.797291 92.9543 0.521299 93.0686 0.317809 93.2721C0.114319 93.4756 0 93.7516 0 94.0394L0 98.9149C0 99.2027 0.114319 99.4787 0.317809 99.6822C0.521299 99.8857 0.797291 100 1.08507 100H68.3594C68.6471 100 68.9231 99.8857 69.1266 99.6822C69.3301 99.4787 69.4444 99.2027 69.4444 98.9149V94.0394C69.4444 93.7516 69.3301 93.4756 69.1266 93.2721C68.9231 93.0686 68.6471 92.9543 68.3594 92.9543ZM45.6655 67.6273H57.5593V92.9543H45.6655V67.6273ZM67.2743 97.8299H2.17014V95.1244H67.2743V97.8299Z" fill="#415364" stroke="#415364" stroke-width="0.5"/>
</g>
<g clip-path="url(#clip1_11_120)">
<path d="M62.6845 22.1901C62.3876 22.5277 61.9422 22.6965 61.3681 22.7064H58.1215L58.1017 12.1715C58.0918 10.5729 59.042 10.2253 59.8438 10.2253H63.0903L63.1101 20.7603C63.12 21.3957 62.9716 21.8624 62.6845 22.1901Z" fill="#E0E2E5"/>
<path d="M14.758 13.9786L17.5394 13.9686L17.5295 11.8438L14.8471 11.8537C12.4815 11.8637 10.8879 13.4027 10.8978 15.6864L10.9275 20.4127L15.3915 20.3929V21.4454C15.3915 21.9021 15.2134 22.6567 13.9563 22.6667L7.77 22.6865C6.79009 22.6865 6.44366 22.4184 6.30509 21.5149V21.4751L6.29519 6.79974H7.95807L7.93827 4.65503L4.177 4.66496V4.77418L4.1968 21.1475C4.2067 23.5702 5.52314 24.8511 8.00756 24.8511C8.01745 24.8511 8.02735 24.8511 8.03725 24.8511L13.7088 24.8412C14.9461 24.8312 15.9062 24.5135 16.5496 23.878C17.193 23.2425 17.5196 22.3092 17.5196 21.1078L17.5097 18.268L13.0457 18.2879L13.0358 15.9346C13.016 14.3162 13.9662 13.9786 14.758 13.9786Z" fill="#415364"/>
<path d="M1.50648 15.0786L0.00112915 16.6016L1.50525 18.0977L3.01061 16.5747L1.50648 15.0786Z" fill="#93D500"/>
<path d="M1.50828 11.5531L0.00292969 13.076L1.50705 14.5722L3.01241 13.0492L1.50828 11.5531Z" fill="#93D500"/>
<path d="M41.5001 21.9455L39.9808 23.4825L41.499 24.9926L43.0183 23.4556L41.5001 21.9455Z" fill="#93D500"/>
<path d="M47.327 8.67962L45.8356 10.1885L47.3397 11.6846L48.8311 10.1757L47.327 8.67962Z" fill="#93D500"/>
<path d="M47.3262 4.9367L45.8348 6.44556L47.3389 7.94167L48.8303 6.43281L47.3262 4.9367Z" fill="#93D500"/>
<path d="M65.2382 8.09055L59.9229 8.10048C58.7649 8.10048 57.7651 8.47779 57.0525 9.17284C56.3398 9.86789 55.9736 10.8211 55.9736 11.9332L55.9934 18.0893L52.0837 18.1091L52.054 8.59694L49.9358 8.60687L49.9655 18.1191L42.5914 18.1489L42.5716 8.32885C42.5617 6.05506 40.978 4.53589 38.6223 4.53589C38.6124 4.53589 38.6025 4.53589 38.6025 4.53589L32.4756 4.55575L32.4855 6.6806L38.7015 6.65081H38.7114C39.4834 6.65081 40.4039 6.98841 40.4138 8.58701L40.4237 18.1588L24.1414 18.2382L24.1315 11.814L22.0133 11.8239L22.0529 20.5815C22.0628 21.9815 21.2809 22.7262 19.7862 22.7362H19.7368L19.7467 24.8114H19.8258C22.6567 24.8014 24.0721 23.4312 24.1711 20.6312L24.181 20.3532L56.0132 20.2141L56.0231 24.861L61.3384 24.8511C63.7436 24.8412 65.2877 23.2723 65.2778 20.8595L65.2382 8.09055ZM62.6845 22.1901C62.3875 22.5277 61.9421 22.6965 61.368 22.7064H58.1215L58.1017 12.1715C58.0918 10.5729 59.042 10.2253 59.8437 10.2253H63.0903L63.1101 20.7603C63.12 21.3957 62.9715 21.8624 62.6845 22.1901Z" fill="#415364"/>
<path d="M61.0909 17.1063C61.5884 17.1063 61.9916 16.7018 61.9916 16.2028C61.9916 15.7037 61.5884 15.2992 61.0909 15.2992C60.5935 15.2992 60.1902 15.7037 60.1902 16.2028C60.1902 16.7018 60.5935 17.1063 61.0909 17.1063Z" fill="#415364"/>
<path d="M12.7883 7.60403V4.50611C12.7883 4.23802 12.6992 4.10894 12.5211 4.10894C12.4122 4.10894 12.3231 4.14865 12.2637 4.21816C12.2043 4.29759 12.1746 4.40681 12.1746 4.54582V7.61396H11.462V4.49618C11.462 4.22809 11.3729 4.09901 11.1947 4.09901C11.0759 4.09901 10.9869 4.13873 10.9374 4.22809C10.878 4.31745 10.8483 4.42667 10.8483 4.57561V7.60403H10.1356V3.56283H10.8483V3.99972C10.8879 3.85078 10.9671 3.73163 11.0759 3.64226C11.1848 3.5529 11.3234 3.51318 11.5016 3.51318C11.7985 3.51318 11.9965 3.65219 12.0954 3.92028C12.2439 3.65219 12.4716 3.51318 12.7784 3.51318C13.0358 3.51318 13.2139 3.60255 13.3228 3.77134C13.4317 3.94014 13.4911 4.18837 13.4911 4.51604V7.61396H12.7883V7.60403Z" fill="#93D500"/>
<path d="M15.055 7.63387C14.8075 7.63387 14.6392 7.58422 14.5502 7.48493C14.4611 7.38564 14.4215 7.22677 14.4215 6.98847V4.16857H14.0948V3.65225H14.4215V2.85791H15.1341V3.64232H15.5301V4.16857H15.1341V6.86932C15.1341 6.96861 15.1539 7.02819 15.2034 7.04805C15.2529 7.07783 15.3618 7.08776 15.5301 7.08776V7.63387H15.055Z" fill="#93D500"/>
<path d="M16.4308 8.13028C16.4011 8.13028 16.3318 8.13028 16.2229 8.13028C16.114 8.13028 16.0448 8.11042 15.9953 8.08063V7.58417C16.025 7.5941 16.0646 7.5941 16.114 7.58417C16.2229 7.57424 16.2823 7.51466 16.2823 7.40544V3.56283H16.995V7.38558C16.995 7.63381 16.9455 7.81254 16.8465 7.94162C16.7574 8.0707 16.6089 8.13028 16.4308 8.13028ZM16.1239 2.59969L16.6386 2.08337L17.1434 2.58976L16.6287 3.10608L16.1239 2.59969Z" fill="#93D500"/>
<path d="M18.5094 7.64374C18.2421 7.64374 18.0541 7.54445 17.9452 7.3558C17.8363 7.16714 17.7769 6.88912 17.767 6.5416V6.28344C17.767 5.93592 17.8561 5.67776 18.0442 5.49903C18.163 5.37988 18.3708 5.27066 18.6579 5.16144C18.7073 5.14158 18.7865 5.11179 18.8756 5.082C18.9647 5.05221 19.034 5.02243 19.0736 5.0125V4.65505C19.0736 4.4366 19.0538 4.28766 19.0241 4.20823C18.9944 4.1288 18.9251 4.08908 18.8063 4.08908C18.6875 4.08908 18.6183 4.1288 18.5787 4.20823C18.5391 4.28766 18.5193 4.42667 18.5193 4.62526V4.80398H17.8165V4.68483C17.8165 4.29759 17.8858 4.00965 18.0343 3.81106C18.1728 3.61248 18.4302 3.51318 18.7964 3.51318C19.1627 3.51318 19.42 3.61248 19.5685 3.81106C19.7169 4.00965 19.7961 4.31745 19.7961 4.71462V7.5941H19.0835V7.19693C19.0439 7.31608 18.9746 7.4253 18.8756 7.51466C18.7766 7.60403 18.6579 7.64374 18.5094 7.64374ZM19.0736 5.40967C18.8459 5.50896 18.6974 5.60825 18.6183 5.69761C18.5391 5.78698 18.4995 5.92599 18.4995 6.11464V6.55153C18.4995 6.74018 18.5193 6.87919 18.5589 6.95863C18.5985 7.03806 18.6579 7.07778 18.7469 7.07778C18.836 7.07778 18.9053 7.04799 18.9647 6.98841C19.0241 6.92884 19.0538 6.85933 19.0736 6.78983V5.40967Z" fill="#93D500"/>
<path d="M22.0133 3.51318C22.0232 3.51318 22.0232 3.66212 22.0232 3.96993V4.11887C21.8846 4.11887 21.7362 4.13873 21.5976 4.18837C21.459 4.23802 21.3699 4.30752 21.3303 4.39689V7.60403H20.6177V3.56283H21.3303V4.00965C21.3798 3.85078 21.459 3.73163 21.5778 3.64226C21.6966 3.56283 21.8351 3.51318 22.0133 3.51318Z" fill="#93D500"/>
<path d="M22.4488 2.59969L22.9635 2.08337L23.4683 2.58976L22.9536 3.10608L22.4488 2.59969ZM22.6072 7.60403V3.56283H23.3199V7.60403H22.6072Z" fill="#93D500"/>
<path d="M25.6756 4.78408C25.6756 3.95003 25.923 3.52307 26.4081 3.52307C26.6951 3.52307 26.8832 3.64222 26.9821 3.87059V3.56279H27.6948V8.36854H26.9821V7.32597C26.9426 7.41533 26.8832 7.49476 26.7842 7.55434C26.6951 7.61391 26.5862 7.6437 26.4674 7.6437C26.3487 7.6437 26.2398 7.62384 26.1408 7.5742C25.9626 7.49476 25.8439 7.3359 25.7746 7.11745C25.7053 6.89901 25.6756 6.62099 25.6756 6.29333V4.78408ZM26.6654 7.07774C26.7842 7.07774 26.8634 7.02809 26.9129 6.93873C26.9623 6.84936 26.9821 6.68057 26.9821 6.45219V4.74437C26.9821 4.51599 26.9623 4.35713 26.9129 4.24791C26.8634 4.14861 26.7842 4.09897 26.6654 4.09897C26.5466 4.09897 26.4773 4.15854 26.4378 4.26776C26.3982 4.37699 26.3883 4.54578 26.3883 4.76423V6.44227C26.3883 6.77986 26.4279 6.97844 26.507 7.04795C26.5565 7.05788 26.606 7.07774 26.6654 7.07774Z" fill="#93D500"/>
<path d="M29.2092 7.64374C28.942 7.64374 28.7539 7.54445 28.645 7.3558C28.5361 7.16714 28.4768 6.88912 28.4669 6.5416V6.28344C28.4669 5.93592 28.5559 5.67776 28.744 5.49903C28.8628 5.37988 29.0706 5.27066 29.3577 5.16144C29.4072 5.14158 29.4864 5.11179 29.5754 5.082C29.6645 5.05221 29.7338 5.02243 29.7734 5.0125V4.65505C29.7734 4.4366 29.7536 4.28766 29.7239 4.20823C29.6942 4.1288 29.6249 4.08908 29.5062 4.08908C29.3874 4.08908 29.3181 4.1288 29.2785 4.20823C29.2389 4.28766 29.2191 4.42667 29.2191 4.62526V4.80398H28.5163V4.68483C28.5163 4.29759 28.5856 4.00965 28.7341 3.81106C28.8727 3.61248 29.13 3.51318 29.4963 3.51318C29.8625 3.51318 30.1198 3.61248 30.2683 3.81106C30.4168 4.00965 30.496 4.31745 30.496 4.71462V7.5941H29.7833V7.19693C29.7437 7.31608 29.6744 7.4253 29.5754 7.51466C29.4666 7.60403 29.3478 7.64374 29.2092 7.64374ZM29.7635 5.40967C29.5359 5.50896 29.3874 5.60825 29.3082 5.69761C29.229 5.78698 29.1894 5.92599 29.1894 6.11464V6.55153C29.1894 6.74018 29.2092 6.87919 29.2488 6.95863C29.2884 7.03806 29.3478 7.07778 29.4369 7.07778C29.526 7.07778 29.5952 7.04799 29.6546 6.98841C29.714 6.92884 29.7437 6.85933 29.7635 6.78983V5.40967Z" fill="#93D500"/>
<path d="M24.5533 6.56334L24.0353 7.08289L24.5393 7.58839L25.0572 7.06884L24.5533 6.56334Z" fill="#415364"/>
</g>
<defs>
<clipPath id="clip0_11_120">
<rect width="69.4444" height="100" fill="white"/>
</clipPath>
<clipPath id="clip1_11_120">
<rect width="65.2778" height="22.9167" fill="white" transform="translate(0 2.08337)"/>
</clipPath>
</defs>
</svg>
