<svg width="100" height="100" viewBox="0 0 100 100" fill="none" xmlns="http://www.w3.org/2000/svg">
<g clip-path="url(#clip0_11_172)">
<path d="M27.0833 79.1667H18.75C17.6 79.1667 16.6667 78.2333 16.6667 77.0833C16.6667 75.9333 17.6 75 18.75 75H27.0833C28.2333 75 29.1667 75.9333 29.1667 77.0833C29.1667 78.2333 28.2333 79.1667 27.0833 79.1667Z" fill="#415364"/>
<path d="M94.7917 79.1666H89.5833C88.4333 79.1666 87.5 78.2333 87.5 77.0833C87.5 75.9333 88.4333 75 89.5833 75H93.0625L95.8708 60.0333C95.8333 52.375 89.2917 45.8333 81.25 45.8333H67.5708L60.9417 75H72.9167C74.0667 75 75 75.9333 75 77.0833C75 78.2333 74.0667 79.1666 72.9167 79.1666H58.3333C57.7 79.1666 57.1 78.8791 56.7042 78.3833C56.3083 77.8916 56.1583 77.2416 56.3 76.625L63.875 43.2916C64.0917 42.3375 64.9333 41.6666 65.9083 41.6666H81.25C91.5875 41.6666 100 50.0791 100 60.4166L96.8375 77.4666C96.6542 78.4541 95.7958 79.1666 94.7917 79.1666Z" fill="#415364"/>
<path d="M81.25 87.5C75.5083 87.5 70.8333 82.8291 70.8333 77.0833C70.8333 71.3375 75.5083 66.6666 81.25 66.6666C86.9917 66.6666 91.6667 71.3375 91.6667 77.0833C91.6667 82.8291 86.9917 87.5 81.25 87.5ZM81.25 70.8333C77.8042 70.8333 75 73.6375 75 77.0833C75 80.5291 77.8042 83.3333 81.25 83.3333C84.6958 83.3333 87.5 80.5291 87.5 77.0833C87.5 73.6375 84.6958 70.8333 81.25 70.8333Z" fill="#415364"/>
<path d="M35.4167 87.5C29.675 87.5 25 82.8291 25 77.0833C25 71.3375 29.675 66.6666 35.4167 66.6666C41.1583 66.6666 45.8333 71.3375 45.8333 77.0833C45.8333 82.8291 41.1583 87.5 35.4167 87.5ZM35.4167 70.8333C31.9708 70.8333 29.1667 73.6375 29.1667 77.0833C29.1667 80.5291 31.9708 83.3333 35.4167 83.3333C38.8625 83.3333 41.6667 80.5291 41.6667 77.0833C41.6667 73.6375 38.8625 70.8333 35.4167 70.8333Z" fill="#415364"/>
<path d="M27.0833 41.6667H10.4167C9.26666 41.6667 8.33333 40.7333 8.33333 39.5833C8.33333 38.4333 9.26666 37.5 10.4167 37.5H27.0833C28.2333 37.5 29.1667 38.4333 29.1667 39.5833C29.1667 40.7333 28.2333 41.6667 27.0833 41.6667Z" fill="#93D500"/>
<path d="M27.0833 54.1667H6.25001C5.10001 54.1667 4.16667 53.2333 4.16667 52.0833C4.16667 50.9333 5.10001 50 6.25001 50H27.0833C28.2333 50 29.1667 50.9333 29.1667 52.0833C29.1667 53.2333 28.2333 54.1667 27.0833 54.1667Z" fill="#93D500"/>
<path d="M27.0833 66.6667H2.08333C0.933333 66.6667 0 65.7333 0 64.5833C0 63.4333 0.933333 62.5 2.08333 62.5H27.0833C28.2333 62.5 29.1667 63.4333 29.1667 64.5833C29.1667 65.7333 28.2333 66.6667 27.0833 66.6667Z" fill="#93D500"/>
<path d="M58.3333 79.1666H43.75C42.6 79.1666 41.6667 78.2333 41.6667 77.0833C41.6667 75.9333 42.6 75 43.75 75H56.6708L66.1375 33.3333H18.75C17.6 33.3333 16.6667 32.4 16.6667 31.25C16.6667 30.1 17.6 29.1666 18.75 29.1666H68.75C69.3833 29.1666 69.9833 29.4541 70.3792 29.95C70.775 30.4416 70.925 31.0916 70.7833 31.7083L60.3667 77.5416C60.15 78.4958 59.3042 79.1666 58.3333 79.1666Z" fill="#415364"/>
</g>
<defs>
<clipPath id="clip0_11_172">
<rect width="100" height="100" fill="white"/>
</clipPath>
</defs>
</svg>
