<svg width="100" height="100" viewBox="0 0 100 100" fill="none" xmlns="http://www.w3.org/2000/svg">
<g clip-path="url(#clip0_11_190)">
<path d="M85.9447 0H81.6452C79.7553 0 79.7553 2.93011 81.6452 2.93011H85.9447C90.3848 2.93011 93.9972 6.52946 93.9972 10.9535V44.8592C93.9972 49.2835 90.3849 52.8828 85.9447 52.8828H81.0684C80.7466 52.8828 80.4339 52.9887 80.1782 53.1843L71.2304 60.0286V54.3479C71.2304 53.5388 70.5747 52.8828 69.7654 52.8828H51.9347C50.4745 52.8828 49.0712 52.4974 47.8335 51.7647V35.3186C47.8335 32.2381 46.2645 29.5164 43.8819 27.9062V10.9535C43.8819 6.52946 47.4944 2.93011 51.9347 2.93011H72.4642C74.3539 2.93011 74.3539 0 72.4642 0H51.9347C45.8787 0 40.9518 4.9138 40.9518 10.9535V26.6185C40.281 26.4583 39.5821 26.371 38.8629 26.371H12.0433C7.09712 26.371 3.07291 30.3849 3.07291 35.3186V38.4821C3.07291 40.3719 6.00302 40.3719 6.00302 38.4821V35.3186C6.00302 32.0005 8.71259 29.3011 12.0433 29.3011H38.863C42.1938 29.3011 44.9036 32.0005 44.9036 35.3186V52.348C44.886 52.4773 44.8868 52.6076 44.9036 52.7359V62.056C44.9036 62.2403 44.8924 62.4237 44.8758 62.6061H41.8545C38.5253 62.6061 35.7499 65.009 35.1744 68.1671C35.0412 68.2173 34.9133 68.2874 34.7947 68.3788L28.242 73.4384V69.5386C28.242 68.7295 27.5862 68.0735 26.7769 68.0735H12.0433C8.71259 68.0735 6.00302 65.3741 6.00302 62.056V47.2725C6.00302 45.3827 3.07291 45.3827 3.07291 47.2725V62.0562C3.07291 66.99 7.09712 71.0038 12.0433 71.0038H25.3121V76.4206C25.3121 77.5958 26.739 78.3008 27.6726 77.5804L35.0633 71.8739V88.3558C35.0633 92.0916 38.11 95.1308 41.8547 95.1308H50.8452V98.5494C50.8452 99.7242 52.2722 100.43 53.2055 99.7092L59.1353 95.1308H60.8871C64.6318 95.1308 67.6785 92.0914 67.6785 88.3558V85.7546C67.6785 83.8649 64.7484 83.8649 64.7484 85.7546V88.3558C64.7484 90.476 63.0163 92.2006 60.8871 92.2006H58.6354C58.3114 92.2006 57.9965 92.3081 57.7402 92.506L53.7752 95.5671V93.6655C53.7752 92.8564 53.1194 92.2004 52.3101 92.2004H41.8545C39.7255 92.2004 37.9932 90.4756 37.9932 88.3556V69.3813C37.9932 67.2611 39.7253 65.5364 41.8545 65.5364H60.8871C63.0161 65.5364 64.7484 67.2613 64.7484 69.3813V76.5736C64.7484 78.4633 67.6785 78.4633 67.6785 76.5736V69.3815C67.6785 65.6456 64.6318 62.6065 60.8871 62.6065H47.8169C47.828 62.4235 47.8337 55.0238 47.8337 55.0238C49.1255 55.5432 50.5104 55.8131 51.9349 55.8131H68.3005V62.9939C68.3005 64.1661 69.7214 64.8719 70.6557 64.1575L81.5647 55.8131H85.9449C92.0006 55.8131 96.9275 50.8994 96.9275 44.8594V10.9535C96.9273 4.9138 92.0004 0 85.9447 0Z" fill="#415364"/>
<path d="M72.6003 10.8242C70.7401 10.3493 68.8445 11.8191 68.8445 13.7412C68.8445 15.8413 68.0792 17.8652 66.6905 19.4391L62.654 24.0068C62.3926 23.6057 61.941 23.3403 61.4267 23.3403H53.5466C52.7373 23.3403 52.0815 23.9962 52.0815 24.8053V42.5354C52.0815 43.3445 52.7373 44.0005 53.5466 44.0005H61.4267C62.0187 44.0005 62.5274 43.6487 62.7585 43.1435C64.3538 44.1183 66.2025 44.6453 68.0835 44.6453H82.0097C84.1377 44.6453 85.8933 42.7987 85.7935 40.6762C85.7491 39.7362 85.7976 27.1146 85.7976 26.8343C85.7976 24.7457 84.0983 23.0463 82.014 23.0463L74.7721 23.0246L75.072 22.3145C76.4423 19.0693 76.2167 15.3063 74.4692 12.2478C74.0613 11.5333 73.3973 11.0279 72.6003 10.8242C73.3973 11.0279 71.803 10.6206 72.6003 10.8242C73.3973 11.0279 70.7403 10.3493 72.6003 10.8242ZM59.9616 41.0704H55.0117V26.2704H59.9616V41.0704ZM82.0097 25.9762C82.4828 25.9762 82.8676 26.361 82.8676 26.8341C82.8676 27.1129 82.8647 27.8694 82.8608 28.8952C82.8391 34.5585 82.8247 39.9221 82.8665 40.8137C82.8817 41.1354 82.7252 41.3499 82.6307 41.4491C82.467 41.6206 82.2465 41.715 82.0097 41.715H68.0835C66.4235 41.715 64.7988 41.1397 63.5084 40.0952L62.8917 39.5959V28.1624L68.8869 21.3784C70.7491 19.268 71.7746 16.5557 71.7746 13.741C71.7746 13.6582 71.8877 13.6367 71.9252 13.7012C73.2227 15.9716 73.3899 18.7652 72.3728 21.1743L71.2165 23.9128C71.0257 24.3646 71.0737 24.8817 71.3439 25.2907C71.6144 25.6998 72.0715 25.9463 72.5617 25.9479L82.0097 25.9762Z" fill="#93D500"/>
<path d="M15.6177 50.8859C14.8084 50.8859 14.1526 51.5418 14.1526 52.3509C14.1526 53.16 14.8084 53.816 15.6177 53.816H19.9363L19.1295 58.6954C18.9975 59.4936 19.5378 60.2478 20.336 60.3798C20.417 60.3933 20.4973 60.3998 20.5766 60.3998C21.2806 60.3998 21.9016 59.8909 22.0204 59.1734L22.906 53.8162H26.4403L25.6336 58.6956C25.5015 59.4938 26.0419 60.248 26.84 60.38C26.9211 60.3935 27.0014 60.4 27.0807 60.4C27.7847 60.4 28.4057 59.8911 28.5244 59.1736L29.4101 53.8164H35.2885C36.0978 53.8164 36.7536 53.1604 36.7536 52.3513C36.7536 51.5422 36.0978 50.8863 35.2885 50.8863H29.8946L30.4855 47.3123H35.2885C36.0978 47.3123 36.7536 46.6564 36.7536 45.8473C36.7536 45.0382 36.0978 44.3822 35.2885 44.3822H30.9699L31.7767 39.5028C31.9087 38.7046 31.3684 37.9504 30.5702 37.8184C29.7711 37.6859 29.0179 38.2266 28.8858 39.0248L28.0001 44.382H24.4658L25.2726 39.5026C25.4047 38.7044 24.8643 37.9502 24.0662 37.8182C23.2661 37.6857 22.514 38.2264 22.3818 39.0246L21.4961 44.3818H15.6177C14.8084 44.3818 14.1526 45.0378 14.1526 45.8469C14.1526 46.656 14.8084 47.3119 15.6177 47.3119H21.0116L20.4207 50.8859H15.6177ZM23.9816 47.3119H27.5159L26.925 50.8859H23.3907L23.9816 47.3119Z" fill="#93D500"/>
<path d="M51.3531 73.0957C50.1701 72.1218 48.5963 71.7375 47.0175 72.1214C44.9944 72.6127 42.9529 74.504 42.9529 77.6214C42.9529 79.5617 43.661 81.2459 45.1176 82.7704C46.3075 84.0157 48.0245 85.1998 50.6847 86.6102C50.8993 86.7241 51.1351 86.7809 51.3709 86.7809C51.6067 86.7809 51.8424 86.7241 52.0571 86.6102C56.698 84.1499 59.7887 81.6798 59.7887 77.6214C59.7887 74.487 57.6747 72.615 55.5795 72.1503C54.0055 71.801 52.4795 72.1718 51.3531 73.0957ZM56.8584 77.6214C56.8584 79.8104 55.4064 81.4292 51.3707 83.6508C47.335 81.429 45.8828 79.8102 45.8828 77.6214C45.8828 75.9927 46.8259 75.1832 47.7086 74.9687C47.8714 74.9292 48.0456 74.9069 48.2247 74.9069C48.8887 74.9069 49.6187 75.2136 50.0688 76.0862C50.3252 76.5828 50.8437 76.8906 51.3998 76.8791C51.9583 76.868 52.4621 76.5402 52.6982 76.0339C53.1723 75.0177 54.1693 74.839 54.9445 75.0111C55.87 75.216 56.8584 76.0096 56.8584 77.6214Z" fill="#93D500"/>
</g>
<defs>
<clipPath id="clip0_11_190">
<rect width="100" height="100" fill="white"/>
</clipPath>
</defs>
</svg>
