<svg width="100" height="100" viewBox="0 0 100 100" fill="none" xmlns="http://www.w3.org/2000/svg">
<g clip-path="url(#clip0_56_976)">
<path d="M98.2229 18.9119C96.9272 17.3802 95.1127 16.4447 93.1133 16.2777L22.6923 10.3976C20.6927 10.2306 18.7486 10.8523 17.2167 12.1478C15.6912 13.4382 14.757 15.2435 14.5847 17.2331L13.1679 30.5253H7.51071C3.36932 30.5253 0 33.8946 0 38.036V82.1182C0 86.2596 3.36932 89.629 7.51071 89.629H78.177C82.3186 89.629 85.688 86.2596 85.688 82.1182V74.9673L88.1956 75.1767C88.4071 75.1943 88.6174 75.203 88.826 75.203C92.6869 75.203 95.9783 72.2325 96.3053 68.3169L99.9734 24.3876C100.14 22.3882 99.5186 20.4437 98.2229 18.9119ZM7.51071 34.4315H78.177C80.1645 34.4315 81.7817 36.0485 81.7817 38.036V42.0528H3.90623V38.036C3.90623 36.0485 5.52322 34.4315 7.51071 34.4315ZM3.90623 45.959H81.7817V54.0623H3.90623V45.959ZM78.177 85.7227H7.51071C5.52322 85.7227 3.90623 84.1057 3.90623 82.1182V57.9685H81.7817V82.1182C81.7817 84.1057 80.1645 85.7227 78.177 85.7227ZM96.0807 24.0624L92.4125 67.9917C92.2471 69.9724 90.5008 71.4499 88.5206 71.2839L85.688 71.0474V38.036C85.688 33.8946 82.3186 30.5253 78.177 30.5253H17.0964L18.4712 17.6269C18.4728 17.6121 18.4741 17.5974 18.4753 17.5824C18.6407 15.6017 20.3861 14.1244 22.3673 14.2904L92.7885 20.1704C93.7481 20.2505 94.619 20.6995 95.2406 21.4347C95.8623 22.1698 96.1608 23.1029 96.0807 24.0624Z" fill="#415364"/>
<path d="M73.6078 63.7755H54.8105C53.7318 63.7755 52.8574 64.6499 52.8574 65.7286V77.9921C52.8574 79.0708 53.7318 79.9452 54.8105 79.9452H73.6078C74.6865 79.9452 75.5609 79.0708 75.5609 77.9921V65.7286C75.5609 64.6499 74.6865 63.7755 73.6078 63.7755ZM71.6547 76.039H56.7637V67.6818H71.6547V76.039Z" fill="#93D500"/>
</g>
<defs>
<clipPath id="clip0_56_976">
<rect width="100" height="100" fill="white"/>
</clipPath>
</defs>
</svg>
