<svg width="100" height="100" viewBox="0 0 100 100" fill="none" xmlns="http://www.w3.org/2000/svg">
<g clip-path="url(#clip0_56_1187)">
<path d="M81.1538 87.0968L77.4199 75.8935C76.1151 71.9823 72.786 69.0952 68.728 68.3564L57.949 66.3952V65.5597C59.8248 64.471 61.457 63.0145 62.757 61.2903H66.0135C68.6812 61.2903 70.8522 59.1193 70.8522 56.4516V37.0968C70.8522 25.5355 61.4457 16.129 49.8844 16.129C38.3231 16.129 28.9167 25.5355 28.9167 37.0968V48.3871C28.9167 51.4968 31.128 54.0984 34.0602 54.7048C34.9651 59.3403 37.8619 63.2629 41.8199 65.5597V66.3952L31.0393 68.3564C26.9828 69.0952 23.6522 71.9823 22.349 75.8935L21.7038 77.8306L16.2102 72.3371C15.5812 71.7081 15.5812 70.6839 16.2102 70.0548L22.5812 63.6855L10.6231 51.7274L3.42315 58.9274C1.29089 61.0597 0.116699 63.8952 0.116699 66.9113C0.116699 69.9274 1.29089 72.7613 3.42315 74.8935L25.2215 96.6919C27.3538 98.8242 30.1893 100 33.2054 100C36.2215 100 39.0554 98.8242 41.1377 96.7403L48.9941 89.5419L46.5441 87.0968H81.1538ZM67.6264 56.4516C67.6264 57.3419 66.9022 58.0645 66.0135 58.0645H64.657C65.1248 56.9984 65.4796 55.8742 65.7086 54.7048C66.399 54.5613 67.0344 54.2871 67.6264 53.9419V56.4516ZM66.0135 51.1645V45.6097C66.9732 46.1693 67.6264 47.1984 67.6264 48.3871C67.6264 49.5758 66.9732 50.6048 66.0135 51.1645ZM33.7554 51.1645C32.7957 50.6048 32.1425 49.5758 32.1425 48.3871C32.1425 47.1984 32.7957 46.1693 33.7554 45.6097V51.1645ZM33.7554 40.3226V42.1645C33.1812 42.3145 32.6425 42.5403 32.1425 42.8323V37.0968C32.1425 27.3145 40.1022 19.3548 49.8844 19.3548C59.6667 19.3548 67.6264 27.3145 67.6264 37.0968V42.8323C67.1264 42.5403 66.5877 42.3129 66.0135 42.1645V40.3226H64.4006C59.6312 40.3226 55.1473 38.4645 51.7731 35.0919L49.8844 33.2032L47.9957 35.0919C44.6215 38.4645 40.1377 40.3226 35.3683 40.3226H33.7554ZM36.9812 51.6129V43.4871C41.8248 43.1226 46.3409 41.1242 49.8844 37.7548C53.428 41.1242 57.9441 43.1242 62.7877 43.4871V51.6129C62.7877 53.9645 62.1457 56.1645 61.0425 58.0645H49.8844V61.2903H58.3909C56.1167 63.2919 53.1441 64.5161 49.8844 64.5161C42.7699 64.5161 36.9812 58.7274 36.9812 51.6129ZM54.7232 66.9984V67.0742L49.8844 71.9129L45.0457 67.0742V66.9984C46.5748 67.479 48.199 67.7419 49.8844 67.7419C51.5699 67.7419 53.1941 67.479 54.7232 66.9984ZM25.407 76.9129C26.3377 74.1193 28.7167 72.0564 31.6151 71.5274L42.8893 69.479L49.8844 76.4742L56.878 69.4806L68.1506 71.529C71.049 72.0581 73.428 74.1193 74.3586 76.9145L76.6796 83.871H43.3183L37.036 77.5887L30.0554 83.9032C29.4473 84.5145 28.3844 84.5145 27.7748 83.9032L24.2522 80.3806L25.407 76.9129ZM10.6215 56.2887L18.0183 63.6855L16.2667 65.4371L8.86992 58.0403L10.6215 56.2887ZM38.9038 94.4145C37.3812 95.9339 35.3554 96.7742 33.2022 96.7742C31.049 96.7742 29.0231 95.9339 27.499 94.4113L5.70057 72.6145C4.17799 71.0919 3.33928 69.0661 3.33928 66.9129C3.33928 64.7581 4.17799 62.7323 5.70057 61.2097L6.58767 60.3226L13.9844 67.7193L13.9264 67.7774C12.0409 69.6645 12.0409 72.7339 13.9264 74.621L25.4925 86.1871C26.407 87.1 27.6215 87.6048 28.9151 87.6048C30.2086 87.6048 31.4231 87.1016 32.278 86.2435L32.399 86.1355L39.8296 93.5661L38.9038 94.4145ZM42.2102 91.3822L34.7957 83.9677L36.9264 82.0419L44.328 89.4435L42.2102 91.3822Z" fill="#415364"/>
<path d="M95.0458 0H72.4652C69.7974 0 67.6265 2.17097 67.6265 4.83871V17.7419C67.6265 20.4097 69.7974 22.5806 72.4652 22.5806H76.7732L75.1055 32.3081L90.67 22.5806H95.0458C97.7136 22.5806 99.8845 20.4097 99.8845 17.7419V4.83871C99.8845 2.17097 97.7136 0 95.0458 0ZM96.6587 17.7419C96.6587 18.6306 95.9345 19.3548 95.0458 19.3548H89.7442L79.5007 25.7564L80.599 19.3548H72.4652C71.5765 19.3548 70.8523 18.6306 70.8523 17.7419V4.83871C70.8523 3.95 71.5765 3.22581 72.4652 3.22581H95.0458C95.9345 3.22581 96.6587 3.95 96.6587 4.83871V17.7419Z" fill="#415364"/>
<path d="M93.433 6.4516H74.0781V9.67741H93.433V6.4516Z" fill="#415364"/>
<path d="M86.9814 12.9032H74.0781V16.129H86.9814V12.9032Z" fill="#415364"/>
<path d="M93.4328 12.9032H90.207V16.129H93.4328V12.9032Z" fill="#415364"/>
<path d="M49.8846 4.83868C28.8104 4.83868 10.6572 19.4161 5.93781 39.75L2.88136 34.6548L0.115234 36.3145L5.78459 45.7613L15.2314 40.0919L13.5717 37.3258L9.20072 39.9484C13.7717 21.3467 30.4991 8.06449 49.8846 8.06449C54.1217 8.06449 58.3023 8.69352 62.3104 9.93546L63.2652 6.85481C58.9475 5.5161 54.4459 4.83868 49.8846 4.83868Z" fill="#93D500"/>
<path d="M99.1007 35.7129L89.6539 30.0436L83.9861 39.492L86.7523 41.1516L89.5749 36.4468C91.0603 40.7936 91.82 45.3404 91.82 50C91.82 59.592 88.4974 68.9694 82.4668 76.4033L84.9716 78.4355C91.4684 70.4291 95.0458 60.3291 95.0458 50C95.0458 45.0662 94.2507 40.2484 92.7007 35.6355L97.441 38.4791L99.1007 35.7129Z" fill="#93D500"/>
</g>
<defs>
<clipPath id="clip0_56_1187">
<rect width="100" height="100" fill="white"/>
</clipPath>
</defs>
</svg>
