<svg width="184" height="65" viewBox="0 0 184 65" fill="none" xmlns="http://www.w3.org/2000/svg">
<g clip-path="url(#clip0_5_13)">
<path d="M176.434 57.0299C175.598 57.9874 174.345 58.4662 172.729 58.4944H163.591L163.535 28.6135C163.507 24.0793 166.182 23.0936 168.439 23.0936H177.576L177.632 52.9744C177.66 54.7769 177.242 56.1005 176.434 57.0299Z" fill="#E0E2E5"/>
<path d="M41.5385 33.7392L49.367 33.711L49.3392 27.6841L41.7892 27.7123C35.1308 27.7405 30.6454 32.1057 30.6733 38.5832L30.7569 51.9887L43.3215 51.9324V54.9177C43.3215 56.2132 42.82 58.3536 39.2819 58.3817L21.8697 58.438C19.1116 58.438 18.1365 57.6776 17.7465 55.1148V55.0022L17.7186 13.3774H22.399L22.3433 7.29419L11.7567 7.32235V7.63214L11.8124 54.0728C11.8403 60.9445 15.5456 64.5776 22.5383 64.5776C22.5662 64.5776 22.5941 64.5776 22.6219 64.5776L38.5854 64.5494C42.0678 64.5212 44.7702 63.62 46.5811 61.8176C48.3919 60.0152 49.3113 57.3678 49.3113 53.9601L49.2834 45.9055L36.7188 45.9619L36.691 39.2873C36.6352 34.6967 39.3098 33.7392 41.5385 33.7392Z" fill="#415364"/>
<path d="M4.2402 36.8594L0.00317383 41.179L4.23674 45.4226L8.47377 41.1029L4.2402 36.8594Z" fill="#93D500"/>
<path d="M4.24521 26.8595L0.00817871 31.1792L4.24175 35.4227L8.47877 31.103L4.24521 26.8595Z" fill="#93D500"/>
<path d="M116.808 56.3362L112.531 60.6959L116.805 64.979L121.081 60.6194L116.808 56.3362Z" fill="#93D500"/>
<path d="M133.208 18.7095L129.01 22.9892L133.244 27.2327L137.442 22.953L133.208 18.7095Z" fill="#93D500"/>
<path d="M133.206 8.09316L129.008 12.3728L133.242 16.6163L137.44 12.3367L133.206 8.09316Z" fill="#93D500"/>
<path d="M183.622 17.0386L168.661 17.0667C165.402 17.0667 162.588 18.1369 160.582 20.1083C158.576 22.0797 157.545 24.7834 157.545 27.9376L157.601 45.3986L146.597 45.4549L146.513 18.4749L140.551 18.503L140.635 45.4831L119.879 45.5676L119.824 17.7145C119.796 11.2652 115.338 6.95624 108.708 6.95624C108.68 6.95624 108.652 6.95624 108.652 6.95624L91.4071 7.01256L91.4349 13.0394L108.931 12.9549H108.959C111.132 12.9549 113.723 13.9125 113.75 18.4467L113.778 45.5957L67.9494 45.8211L67.9215 27.5997L61.9596 27.6278L62.071 52.4675C62.0989 56.4385 59.898 58.5507 55.6912 58.5789H55.5519L55.5797 64.4649H55.8026C63.7704 64.4367 67.7543 60.5503 68.0329 52.6083L68.0608 51.8198L157.657 51.4255L157.685 64.6057L172.645 64.5776C179.415 64.5494 183.761 60.0996 183.733 53.2561L183.622 17.0386ZM176.434 57.0299C175.598 57.9874 174.345 58.4662 172.729 58.4944H163.591L163.535 28.6135C163.507 24.0793 166.182 23.0936 168.439 23.0936H177.576L177.632 52.9744C177.66 54.7769 177.242 56.1005 176.434 57.0299Z" fill="#415364"/>
<path d="M171.949 42.6105C173.349 42.6105 174.484 41.4631 174.484 40.0477C174.484 38.6322 173.349 37.4848 171.949 37.4848C170.549 37.4848 169.414 38.6322 169.414 40.0477C169.414 41.4631 170.549 42.6105 171.949 42.6105Z" fill="#415364"/>
<path d="M35.9944 15.6586V6.87176C35.9944 6.11136 35.7437 5.74524 35.2422 5.74524C34.9358 5.74524 34.685 5.85789 34.5179 6.05503C34.3507 6.28034 34.2671 6.59013 34.2671 6.98441V15.6867H32.2612V6.84359C32.2612 6.0832 32.0105 5.71708 31.509 5.71708C31.1747 5.71708 30.924 5.82973 30.7847 6.0832C30.6175 6.33666 30.534 6.64645 30.534 7.0689V15.6586H28.5281V4.19628H30.534V5.43545C30.6454 5.013 30.8683 4.67505 31.1747 4.42158C31.4812 4.16812 31.8712 4.05547 32.3727 4.05547C33.2085 4.05547 33.7657 4.44975 34.0443 5.21015C34.4621 4.44975 35.1029 4.05547 35.9666 4.05547C36.6909 4.05547 37.1924 4.30893 37.4988 4.7877C37.8053 5.26647 37.9724 5.97054 37.9724 6.89992V15.6867H35.9944V15.6586Z" fill="#93D500"/>
<path d="M42.3742 15.7431C41.6778 15.7431 41.2041 15.6022 40.9534 15.3206C40.7027 15.039 40.5912 14.5884 40.5912 13.9125V5.91421H39.6719V4.44973H40.5912V2.1967H42.5971V4.42157H43.7115V5.91421H42.5971V13.5745C42.5971 13.8561 42.6528 14.0251 42.7921 14.0814C42.9314 14.1659 43.2379 14.1941 43.7115 14.1941V15.7431H42.3742Z" fill="#93D500"/>
<path d="M46.2467 17.1512C46.1631 17.1512 45.9681 17.1512 45.6616 17.1512C45.3552 17.1512 45.1602 17.0949 45.0209 17.0104V15.6023C45.1045 15.6304 45.2159 15.6304 45.3552 15.6023C45.6616 15.5741 45.8288 15.4051 45.8288 15.0953V4.19627H47.8347V15.039C47.8347 15.7431 47.6954 16.25 47.4168 16.6161C47.1661 16.9822 46.7482 17.1512 46.2467 17.1512ZM45.383 1.46447L46.8317 0L48.2526 1.43631L46.8039 2.90078L45.383 1.46447Z" fill="#93D500"/>
<path d="M52.0972 15.7712C51.3449 15.7712 50.8156 15.4896 50.5092 14.9545C50.2027 14.4194 50.0355 13.6309 50.0077 12.6452V11.9129C50.0077 10.9272 50.2584 10.195 50.7878 9.68805C51.1221 9.35009 51.7071 9.0403 52.515 8.73051C52.6543 8.67418 52.8772 8.58969 53.128 8.50521C53.3787 8.42072 53.5737 8.33623 53.6851 8.30807V7.2942C53.6851 6.67462 53.6294 6.25217 53.5458 6.02687C53.4623 5.80157 53.2673 5.68891 52.9329 5.68891C52.5986 5.68891 52.4036 5.80157 52.2922 6.02687C52.1807 6.25217 52.125 6.64645 52.125 7.20971V7.71664H50.147V7.37869C50.147 6.28034 50.342 5.46361 50.7599 4.90035C51.1499 4.33709 51.8743 4.05547 52.9051 4.05547C53.9359 4.05547 54.6602 4.33709 55.0781 4.90035C55.496 5.46361 55.7189 6.33666 55.7189 7.46318V15.6304H53.713V14.5039C53.6016 14.8419 53.4065 15.1517 53.128 15.4051C52.8494 15.6586 52.515 15.7712 52.0972 15.7712ZM53.6851 9.43458C53.0444 9.71621 52.6265 9.99784 52.4036 10.2513C52.1807 10.5048 52.0693 10.8991 52.0693 11.4341V12.6733C52.0693 13.2084 52.125 13.6027 52.2365 13.828C52.3479 14.0533 52.515 14.166 52.7658 14.166C53.0165 14.166 53.2115 14.0815 53.3787 13.9125C53.5458 13.7435 53.6294 13.5464 53.6851 13.3492V9.43458Z" fill="#93D500"/>
<path d="M61.9594 4.05547C61.9873 4.05547 61.9873 4.47791 61.9873 5.35096V5.7734C61.5973 5.7734 61.1794 5.82973 60.7893 5.97054C60.3993 6.11136 60.1486 6.3085 60.0371 6.56196V15.6586H58.0312V4.19628H60.0371V5.46361C60.1764 5.013 60.3993 4.67505 60.7336 4.42158C61.0679 4.19628 61.458 4.05547 61.9594 4.05547Z" fill="#93D500"/>
<path d="M63.1853 1.46447L64.634 0L66.0548 1.43631L64.6061 2.90078L63.1853 1.46447ZM63.6311 15.6586V4.19627H65.6369V15.6586H63.6311Z" fill="#93D500"/>
<path d="M72.2675 7.66031C72.2675 5.29462 72.9639 4.08362 74.3291 4.08362C75.137 4.08362 75.6663 4.42157 75.9449 5.06932V4.19627H77.9508V17.8271H75.9449V14.87C75.8335 15.1235 75.6663 15.3488 75.3877 15.5178C75.137 15.6867 74.8305 15.7712 74.4962 15.7712C74.1619 15.7712 73.8555 15.7149 73.5769 15.5741C73.0754 15.3488 72.7411 14.8982 72.5461 14.2786C72.351 13.659 72.2675 12.8704 72.2675 11.9411V7.66031ZM75.0534 14.1659C75.3877 14.1659 75.6106 14.0251 75.7499 13.7717C75.8892 13.5182 75.9449 13.0394 75.9449 12.3917V7.54766C75.9449 6.89991 75.8892 6.4493 75.7499 6.13951C75.6106 5.85788 75.3877 5.71707 75.0534 5.71707C74.7191 5.71707 74.5241 5.88604 74.4126 6.19584C74.3012 6.50563 74.2733 6.9844 74.2733 7.60398V12.3635C74.2733 13.3211 74.3848 13.8843 74.6077 14.0815C74.7469 14.1096 74.8862 14.1659 75.0534 14.1659Z" fill="#93D500"/>
<path d="M82.2134 15.7712C81.4612 15.7712 80.9318 15.4896 80.6254 14.9545C80.3189 14.4194 80.1518 13.6309 80.1239 12.6452V11.9129C80.1239 10.9272 80.3746 10.195 80.904 9.68805C81.2383 9.35009 81.8233 9.0403 82.6313 8.73051C82.7706 8.67418 82.9934 8.58969 83.2442 8.50521C83.4949 8.42072 83.6899 8.33623 83.8013 8.30807V7.2942C83.8013 6.67462 83.7456 6.25217 83.6621 6.02687C83.5785 5.80157 83.3835 5.68891 83.0491 5.68891C82.7148 5.68891 82.5198 5.80157 82.4084 6.02687C82.2969 6.25217 82.2412 6.64645 82.2412 7.20971V7.71664H80.2632V7.37869C80.2632 6.28034 80.4582 5.46361 80.8761 4.90035C81.2661 4.33709 81.9905 4.05547 83.0213 4.05547C84.0521 4.05547 84.7764 4.33709 85.1943 4.90035C85.6122 5.46361 85.8351 6.33666 85.8351 7.46318V15.6304H83.8292V14.5039C83.7178 14.8419 83.5228 15.1517 83.2442 15.4051C82.9377 15.6586 82.6034 15.7712 82.2134 15.7712ZM83.7735 9.43458C83.1327 9.71621 82.7148 9.99784 82.492 10.2513C82.2691 10.5048 82.1576 10.8991 82.1576 11.4341V12.6733C82.1576 13.2084 82.2134 13.6027 82.3248 13.828C82.4362 14.0533 82.6034 14.166 82.8541 14.166C83.1049 14.166 83.2999 14.0815 83.467 13.9125C83.6342 13.7435 83.7178 13.5464 83.7735 13.3492V9.43458Z" fill="#93D500"/>
<path d="M69.1085 12.7069L67.6508 14.1805L69.0691 15.6143L70.5269 14.1407L69.1085 12.7069Z" fill="#415364"/>
</g>
<defs>
<clipPath id="clip0_5_13">
<rect width="183.733" height="65" fill="white"/>
</clipPath>
</defs>
</svg>
