<svg width="212" height="75" viewBox="0 0 212 75" fill="none" xmlns="http://www.w3.org/2000/svg">
<g clip-path="url(#clip0_87_239)">
<path d="M47.929 38.9297L56.9619 38.8972L56.9298 31.9431L48.2183 31.9756C40.5356 32.0081 35.3601 37.0449 35.3923 44.5189L35.4887 59.9869L49.9864 59.9219V63.3664C49.9864 64.8612 49.4077 67.3309 45.3252 67.3634L25.2343 67.4284C22.0519 67.4284 20.9268 66.551 20.4767 63.5939V63.4639L20.4446 15.4353H25.845L25.7807 8.41626L13.5654 8.44876V8.80621L13.6297 62.3916C13.6619 70.3205 17.9372 74.5125 26.0058 74.5125C26.0379 74.5125 26.0701 74.5125 26.1022 74.5125L44.5216 74.48C48.5398 74.4475 51.6579 73.4076 53.7474 71.3279C55.8368 69.2482 56.8977 66.1936 56.8977 62.2616L56.8655 52.9678L42.3679 53.0328L42.3357 45.3313C42.2714 40.0345 45.3574 38.9297 47.929 38.9297Z" fill="white"/>
<path d="M4.89254 42.5299L0.00366211 47.5142L4.88855 52.4105L9.77743 47.4263L4.89254 42.5299Z" fill="#93D500"/>
<path d="M4.8984 30.9916L0.00952148 35.9758L4.89441 40.8722L9.78328 35.888L4.8984 30.9916Z" fill="#93D500"/>
<path d="M134.778 65.0033L129.844 70.0337L134.775 74.9758L139.709 69.9454L134.778 65.0033Z" fill="#93D500"/>
<path d="M153.702 21.5878L148.858 26.5259L153.743 31.4222L158.587 26.4842L153.702 21.5878Z" fill="#93D500"/>
<path d="M153.699 9.33828L148.856 14.2764L153.741 19.1727L158.584 14.2346L153.699 9.33828Z" fill="#93D500"/>
<path d="M211.871 19.6598L194.609 19.6923C190.848 19.6923 187.602 20.9271 185.287 23.2018C182.973 25.4765 181.783 28.5961 181.783 32.2356L181.847 52.3829L169.15 52.4479L169.054 21.3171L162.174 21.3496L162.271 52.4804L138.322 52.5779L138.258 20.4397C138.226 12.9982 133.083 8.02637 125.432 8.02637C125.4 8.02637 125.368 8.02637 125.368 8.02637L105.47 8.09136L105.502 15.0454L125.689 14.9479H125.721C128.229 14.9479 131.218 16.0528 131.25 21.2846L131.283 52.6104L78.403 52.8704L78.3709 31.8457L71.4917 31.8782L71.6203 60.5394C71.6525 65.1213 69.113 67.5584 64.259 67.5909H64.0983L64.1304 74.3825H64.3876C73.5812 74.35 78.178 69.8656 78.4995 60.7018L78.5316 59.792L181.912 59.337L181.944 74.545L199.206 74.5125C207.017 74.48 212.032 69.3457 212 61.4492L211.871 19.6598ZM203.578 65.8037C202.614 66.9085 201.167 67.4609 199.303 67.4934H188.759L188.694 33.0155C188.662 27.7837 191.748 26.6464 194.352 26.6464H204.896L204.96 61.1243C204.992 63.204 204.51 64.7313 203.578 65.8037Z" fill="white"/>
<path d="M198.402 49.1659C200.018 49.1659 201.328 47.842 201.328 46.2088C201.328 44.5756 200.018 43.2517 198.402 43.2517C196.787 43.2517 195.477 44.5756 195.477 46.2088C195.477 47.842 196.787 49.1659 198.402 49.1659Z" fill="#93D500"/>
<path d="M41.5321 18.0677V7.92901C41.5321 7.05163 41.2428 6.62918 40.6642 6.62918C40.3106 6.62918 40.0213 6.75917 39.8284 6.98664C39.6355 7.2466 39.5391 7.60405 39.5391 8.05899V18.1002H37.2246V7.89651C37.2246 7.01913 36.9353 6.59669 36.3567 6.59669C35.9709 6.59669 35.6816 6.72667 35.5209 7.01913C35.328 7.31159 35.2316 7.66904 35.2316 8.15648V18.0677H32.9171V4.84192H35.2316V6.27173C35.3602 5.7843 35.6173 5.39435 35.9709 5.10189C36.3245 4.80943 36.7746 4.67944 37.3532 4.67944C38.3176 4.67944 38.9605 5.13438 39.2819 6.01177C39.7641 5.13438 40.5035 4.67944 41.5 4.67944C42.3358 4.67944 42.9144 4.9719 43.268 5.52433C43.6216 6.07676 43.8145 6.88915 43.8145 7.96151V18.1002H41.5321V18.0677Z" fill="#93D500"/>
<path d="M48.8935 18.1651C48.0899 18.1651 47.5434 18.0026 47.2541 17.6776C46.9648 17.3527 46.8362 16.8328 46.8362 16.0529V6.8241H45.7754V5.13432H46.8362V2.53467H49.1507V5.10183H50.4365V6.8241H49.1507V15.6629C49.1507 15.9879 49.215 16.1828 49.3757 16.2478C49.5364 16.3453 49.89 16.3778 50.4365 16.3778V18.1651H48.8935Z" fill="#93D500"/>
<path d="M53.3617 19.7899C53.2652 19.7899 53.0402 19.7899 52.6866 19.7899C52.333 19.7899 52.108 19.7249 51.9473 19.6274V18.0026C52.0437 18.0351 52.1723 18.0351 52.333 18.0026C52.6866 17.9701 52.8795 17.7751 52.8795 17.4177V4.84185H55.194V17.3527C55.194 18.1651 55.0332 18.75 54.7118 19.1724C54.4225 19.5949 53.9403 19.7899 53.3617 19.7899ZM52.3652 1.68977L54.0367 0L55.6761 1.65728L54.0046 3.34705L52.3652 1.68977Z" fill="#93D500"/>
<path d="M60.1122 18.1976C59.2443 18.1976 58.6335 17.8727 58.2799 17.2553C57.9263 16.6378 57.7334 15.728 57.7013 14.5906V13.7457C57.7013 12.6084 57.9906 11.7635 58.6014 11.1786C58.9871 10.7886 59.6622 10.4312 60.5944 10.0737C60.7551 10.0087 61.0123 9.91125 61.3016 9.81376C61.5909 9.71627 61.8159 9.61878 61.9445 9.58629V8.41645C61.9445 7.70154 61.8802 7.21411 61.7838 6.95414C61.6873 6.69417 61.4623 6.56419 61.0766 6.56419C60.6908 6.56419 60.4658 6.69417 60.3372 6.95414C60.2086 7.21411 60.1444 7.66905 60.1444 8.31896V8.90388H57.862V8.51393C57.862 7.2466 58.087 6.30423 58.5692 5.65431C59.0193 5.0044 59.855 4.67944 61.0444 4.67944C62.2338 4.67944 63.0696 5.0044 63.5518 5.65431C64.034 6.30423 64.2911 7.31159 64.2911 8.61142V18.0352H61.9767V16.7353C61.8481 17.1253 61.6231 17.4827 61.3016 17.7752C60.9801 18.0677 60.5944 18.1976 60.1122 18.1976ZM61.9445 10.8861C61.2052 11.2111 60.723 11.536 60.4658 11.8285C60.2087 12.121 60.0801 12.5759 60.0801 13.1933V14.6231C60.0801 15.2405 60.1444 15.6955 60.2729 15.9554C60.4015 16.2154 60.5944 16.3454 60.8837 16.3454C61.173 16.3454 61.398 16.2479 61.5909 16.0529C61.7838 15.858 61.8802 15.6305 61.9445 15.403V10.8861Z" fill="#93D500"/>
<path d="M71.4917 4.67944C71.5239 4.67944 71.5239 5.16688 71.5239 6.17424V6.66168C71.0739 6.66168 70.5917 6.72667 70.1416 6.88915C69.6916 7.05163 69.4023 7.2791 69.2737 7.57156V18.0677H66.9592V4.84192H69.2737V6.30423C69.4344 5.7843 69.6916 5.39435 70.0773 5.10189C70.4631 4.84192 70.9131 4.67944 71.4917 4.67944Z" fill="#93D500"/>
<path d="M72.9062 1.68977L74.5778 0L76.2172 1.65728L74.5457 3.34705L72.9062 1.68977ZM73.4206 18.0676V4.84185H75.7351V18.0676H73.4206Z" fill="#93D500"/>
<path d="M83.3856 8.83886C83.3856 6.10923 84.1893 4.71191 85.7644 4.71191C86.6966 4.71191 87.3074 5.10186 87.6288 5.84926V4.8419H89.9433V20.5698H87.6288V17.1578C87.5003 17.4502 87.3074 17.7102 86.9859 17.9052C86.6966 18.1001 86.343 18.1976 85.9573 18.1976C85.5715 18.1976 85.2179 18.1326 84.8965 17.9701C84.3178 17.7102 83.9321 17.1903 83.7071 16.4753C83.4821 15.7604 83.3856 14.8506 83.3856 13.7782V8.83886ZM86.6002 16.3454C86.9859 16.3454 87.2431 16.1829 87.4038 15.8904C87.5645 15.598 87.6288 15.0455 87.6288 14.2981V8.70888C87.6288 7.96148 87.5645 7.44155 87.4038 7.0841C87.2431 6.75914 86.9859 6.59666 86.6002 6.59666C86.2144 6.59666 85.9894 6.79164 85.8608 7.14909C85.7323 7.50654 85.7001 8.05897 85.7001 8.77387V14.2656C85.7001 15.3705 85.8287 16.0204 86.0858 16.2479C86.2466 16.2804 86.4073 16.3454 86.6002 16.3454Z" fill="#93D500"/>
<path d="M94.8616 18.1976C93.9937 18.1976 93.3829 17.8727 93.0293 17.2553C92.6757 16.6378 92.4828 15.728 92.4507 14.5906V13.7457C92.4507 12.6084 92.74 11.7635 93.3508 11.1786C93.7365 10.7886 94.4116 10.4312 95.3438 10.0737C95.5045 10.0087 95.7617 9.91125 96.051 9.81376C96.3403 9.71627 96.5653 9.61878 96.6939 9.58629V8.41645C96.6939 7.70154 96.6296 7.21411 96.5332 6.95414C96.4367 6.69417 96.2117 6.56419 95.826 6.56419C95.4402 6.56419 95.2152 6.69417 95.0866 6.95414C94.958 7.21411 94.8937 7.66905 94.8937 8.31896V8.90388H92.6114V8.51393C92.6114 7.2466 92.8364 6.30423 93.3186 5.65431C93.7686 5.0044 94.6044 4.67944 95.7938 4.67944C96.9832 4.67944 97.819 5.0044 98.3012 5.65431C98.7834 6.30423 99.0405 7.31159 99.0405 8.61142V18.0352H96.726V16.7353C96.5975 17.1253 96.3724 17.4827 96.051 17.7752C95.6974 18.0677 95.3116 18.1976 94.8616 18.1976ZM96.6618 10.8861C95.9224 11.2111 95.4402 11.536 95.1831 11.8285C94.9259 12.121 94.7973 12.5759 94.7973 13.1933V14.6231C94.7973 15.2405 94.8616 15.6955 94.9902 15.9554C95.1188 16.2154 95.3116 16.3454 95.6009 16.3454C95.8903 16.3454 96.1153 16.2479 96.3082 16.0529C96.501 15.858 96.5975 15.6305 96.6618 15.403V10.8861Z" fill="#93D500"/>
<path d="M79.7406 14.6617L78.0586 16.3621L79.6952 18.0165L81.3772 16.3161L79.7406 14.6617Z" fill="#93D500"/>
</g>
<defs>
<clipPath id="clip0_87_239">
<rect width="212" height="75" fill="white"/>
</clipPath>
</defs>
</svg>
